# xmcd
#
# Track frame offsets:
#	150
#	15702
#	31817
#	49042
#	68253
#	90662
#	115526
#	134827
#	150947
#	168992
#	187289
#	202512
#	219435
#
# Disc length: 3278 seconds
#
# Revision: 1
# Processed by: cddbd v1.5.2PL0 Copyright (c) Steve Scherf et al.
# Submitted via: audiograbber 1.83.01
#
DISCID=9e0ccc0d
DTITLE=Blackberry Smoke - the Whippoorwill
DYEAR=2012
DGENRE=Country
TTITLE0=Six Ways to Sunday
TTITLE1=Pretty Little Lie
TTITLE2=Everybody Knows She's Mine
TTITLE3=One Horse Town
TTITLE4=Ain't Much Left of Me
TTITLE5=The Whippoorwill
TTITLE6=Lucky Seven
TTITLE7=Leave a Scar
TTITLE8=Crimson Moon
TTITLE9=Ain't Got the Blues
TTITLE10=Sleeping Dogs
TTITLE11=Shakin' Hands with the Holy Ghost
TTITLE12=Up the Road
EXTD=
EXTT0=
EXTT1=
EXTT2=
EXTT3=
EXTT4=
EXTT5=
EXTT6=
EXTT7=
EXTT8=
EXTT9=
EXTT10=
EXTT11=
EXTT12=
PLAYORDER=
